<?xml version="1.0" encoding="UTF-8"?>
<svg id="Ebene_1" xmlns="http://www.w3.org/2000/svg" xmlns:xlink="http://www.w3.org/1999/xlink" version="1.1" viewBox="0 0 600 164">
  <!-- Generator: Adobe Illustrator 29.3.1, SVG Export Plug-In . SVG Version: 2.1.0 Build 151)  -->
  <defs>
    <style>
      .st0 {
        fill: #fff;
      }

      .st1 {
        fill: #ffe438;
      }
    </style>
  </defs>
  <path class="st1" d="M14.1000004,145.8999874h4.1000004v6.3000031h6.2999992v-6.3000031h4.1000004v15.5h-4.1000004v-6h-6.2999992v6h-4.1000004v-15.5ZM37,145.8999874h12.2000008v3.1999969h-8.2000008v2.8999939h7.4000015v3.1999969h-7.4000015v2.8999939h8.4000015v3.1999969h-12.4000015v-15.3999786ZM57.5,145.8999874h4.0999985v15.5h-4.0999985v-15.5ZM69.5,145.8999874h13.3000031v2.6999969l-8.1999969,9.6000061h8.3000031v3.3000031h-13.7000122v-2.6000061l8.1999969-9.6000061h-7.9000015v-3.3999939h.0000076ZM95.1999969,157.3999874c.5999985.6000061,1.3000031.8999939,2.1999969.8999939.9000015,0,1.5999985-.3000031,2.0999985-.8999939.5-.6000061.8000031-1.3999939.8000031-2.3999939v-9.1000061h4.0999985v9.1000061c0,1.3000031-.3000031,2.5-.9000015,3.5s-1.4000015,1.8000031-2.4000015,2.3000031c-1.0999985.5-2.3000031.8000031-3.6999969.8000031-1.4000015,0-2.6999969-.3000031-3.6999969-.8000031-1.0999985-.5-1.9000015-1.3000031-2.5-2.3000031s-.9000015-2.1999969-.9000015-3.5v-9.1000061h4.0999985v9.1000061c.0000076,1,.3000031,1.8000031.8000031,2.3999939ZM123.3000031,145.8999874h3.8000031v15.5h-3.5l-7-9.3000031v9.3000031h-3.8000031v-15.5h3.5999985l7.0999985,9.3000031-.1999969-9.3000031ZM145.8999939,153.4999935h3.5v6.1999969c-.8000031.6000061-1.8000031,1.1000061-3,1.5s-2.3000031.6000061-3.3999939.6000061c-1.6000061,0-3-.3000031-4.1999969-1.1000061-1.1999969-.6999969-2.3000031-1.6999969-3-2.8999939s-1.1000061-2.6000061-1.1000061-4.1000061.3999939-2.8999939,1.1000061-4.1000061c.6999969-1.1999969,1.8000031-2.1999969,3.1000061-2.8999939s2.8000031-1,4.3999939-1c1.1999969,0,2.3000031.1999969,3.5.6000061,1.1999969.3999939,2.1000061,1,2.8999939,1.6999969l-2.3000031,2.8000031c-.6000061-.5-1.1999969-1-1.8999939-1.3000031s-1.3999939-.5-2.1999969-.5-1.6000061.1999969-2.1999969.6000061c-.6999969.3999939-1.1999969,1-1.6000061,1.6000061-.3999939.6999969-.6000061,1.5-.6000061,2.3000031,0,.8999939.1999969,1.6999969.6000061,2.3999939.3999939.6999969.8999939,1.1999969,1.6000061,1.6000061.6999969.3999939,1.5.6000061,2.3000031.6000061s1.6999969-.3000031,2.6999969-.8000031l-.2000122-3.8000183h0ZM168.3999939,143.6999905h2.8999939v20.1999969h-2.8999939v-20.1999969h0ZM198.8000031,149.3999874c-.8999939-.3000031-1.6999969-.5-2.3999939-.5-.5,0-.8999939.1000061-1.1999969.3000031s-.3999939.5-.3999939.8000031.1000061.6000061.3999939.8999939c.3000031.1999969.6000061.3999939.8999939.6000061.3999939.1000061.8999939.3000031,1.6000061.5,1.1000061.3000031,2,.6000061,2.6999969.8999939.6999969.3000031,1.3000031.8000031,1.8000031,1.3999939.5.6000061.8000031,1.5.8000031,2.5s-.3000031,1.8999939-.8000031,2.6000061c-.5.6999969-1.3000031,1.3000031-2.1999969,1.6000061-1,.3999939-2,.6000061-3.1999969.6000061-1.3000031,0-2.6000061-.1999969-3.8000031-.6999969-1.3000031-.3999939-2.3999939-1.1000061-3.3000031-1.8000031l1.6000061-3.1999969c.8000031.6999969,1.6999969,1.3000031,2.8000031,1.6999969s2,.6999969,2.8000031.6999969c.6000061,0,1.1000061-.1000061,1.3999939-.3000031.3000031-.1999969.5-.5.5-1,0-.3999939-.1000061-.6000061-.3999939-.8999939-.3000031-.3000031-.6000061-.3999939-1-.6000061-.5-.1999969-1.1000061-.3999939-1.6000061-.5-1.1000061-.3000031-1.8999939-.6000061-2.6000061-.8999939-.6999969-.3000031-1.3000031-.8000031-1.8000031-1.3999939-.5-.6000061-.6999969-1.3999939-.6999969-2.3999939s.3000031-1.8000031.8000031-2.5,1.1999969-1.3000031,2.1999969-1.6999969c.8999939-.3999939,2-.6000061,3.3000031-.6000061,1.1000061,0,2.1999969.1999969,3.3000031.5s2.1000061.6999969,2.8999939,1.3000031l-1.5,3.1999969c-1.1000061-.4000092-2.0000153-.8000183-2.9000092-1.1000214h0ZM221.8999939,161.3999874l-1.1000061-2.6999969h-6.6999969l-1.1000061,2.6999969h-4.1999969l6.6999969-15.5h4.1999969l6.5,15.5h-4.2999878ZM215.3999939,155.5999996h4.3000031l-2.1000061-5.5-2.1999969,5.5ZM243.8000031,145.8999874h3.8000031v15.5h-3.6000061l-7-9.3000031v9.3000031h-3.8000031v-15.5h3.6000061l7.1000061,9.3000031-.1000061-9.3000031ZM256.1000061,145.8999874h4.1000061v15.5h-4.1000061v-15.5h0ZM267.2999878,145.8999874h13.2999878v3.3000031h-4.5999756v12.1999969h-4.1000061v-12.1999969h-4.6000061v-3.3000031ZM297.6000061,161.3999874l-1.1000061-2.6999969h-6.7000122l-1.1000061,2.6999969h-4.2000122l6.7000122-15.5h4.2000122l6.5,15.5h-4.2999878ZM292.2999878,141.7999966c.2999878.3000031.5.6999969.5,1.1999969s-.2000122.8999939-.5,1.1999969-.7000122.5-1.2000122.5-.8999939-.1999969-1.2000122-.5c-.2999878-.3000031-.5-.6999969-.5-1.1999969s.2000122-.8999939.5-1.1999969.7000122-.5,1.2000122-.5c.5000305,0,.9000244.1999969,1.2000122.5ZM291,155.5999996h4.2999878l-2.1000061-5.5-2.1999817,5.5h0ZM296.6000061,141.7999966c.2999878.3000031.5.6999969.5,1.1999969s-.2000122.8999939-.5,1.1999969-.7000122.5-1.2000122.5-.8999939-.1999969-1.2000122-.5c-.2999878-.3000031-.5-.6999969-.5-1.1999969s.2000122-.8999939.5-1.1999969.7000122-.5,1.2000122-.5.8999939.1999969,1.2000122.5h0ZM318.1000061,161.3999874l-2.2999878-4.3000031h-3v4.3000031h-4.1000061v-15.5h7c2.1000061,0,3.6000061.5,4.7999878,1.3999939,1.1000061,1,1.7000122,2.3000031,1.7000122,4,0,1.1999969-.2000122,2.1999969-.7000122,3s-1.2000122,1.5-2.1000061,2l3.2000122,5.1000061h-4.5ZM312.8999939,153.8999874h2.8999939c.7999878,0,1.5-.1999969,1.8999939-.6000061.3999939-.3999939.7000122-1,.7000122-1.8000031s-.2000122-1.3000031-.7000122-1.6999969-1.1000061-.6000061-1.8999939-.6000061h-2.8999939v4.7000122h0ZM341.2000122,143.6999905h2.8999939v20.1999969h-2.8999939v-20.1999969h0ZM378.3999939,161.3999874h-4.7999878l-4.1000061-6-1.8999939,2.1999969v3.8999939h-4.1000061v-15.5h4.1000061v6.6999969l5.7999878-6.6999969h4.7000122l-5.7999878,6.3999939,6.0999756,9.0000153ZM385.6000061,145.8999874h4.1000061v12.1000061h6.6000061v3.5h-10.6000061v-15.6000061h-.1000061ZM403.6000061,145.8999874h4.1000061v15.5h-4.1000061v-15.5ZM416.2000122,145.8999874h4.3999939l4.5,9.1000061,4.5-9.1000061h4.3999939v15.5h-3.6000061v-9.8000031l-4,8.3000031h-2.6000061l-4-8.3000031v9.8000031h-3.6000061l.0000305-15.5h0ZM453.8999939,161.3999874l-1.1000061-2.6999969h-6.7000122l-1.1000061,2.6999969h-4.2000122l6.7000122-15.5h4.2000122l6.5,15.5h-4.2999878ZM447.3999939,155.5999996h4.2999878l-2.1000061-5.5-2.1999817,5.5h0ZM476,143.6999905h2.8999939v20.1999969h-2.8999939v-20.1999969h0ZM506.2999878,149.3999874c-.8999939-.3000031-1.7000122-.5-2.3999939-.5-.5,0-.8999939.1000061-1.2000122.3000031-.2999878.1999969-.3999939.5-.3999939.8000031s.1000061.6000061.3999939.8999939c.2999878.1999969.6000061.3999939.8999939.6000061.3999939.1000061.8999939.3000031,1.6000061.5,1.1000061.3000031,2,.6000061,2.7000122.8999939.7000122.3000031,1.2999878.8000031,1.7999878,1.3999939s.7999878,1.5.7999878,2.5-.2999878,1.8999939-.7999878,2.6000061c-.5.6999969-1.2999878,1.3000031-2.2000122,1.6000061-1,.3999939-2,.6000061-3.2000122.6000061-1.2999878,0-2.6000061-.1999969-3.7999878-.6999969-1.2999878-.3999939-2.3999939-1.1000061-3.2999878-1.8000031l1.6000061-3.1999969c.7999878.6999969,1.7000122,1.3000031,2.7999878,1.6999969,1.1000061.3999939,2,.6999969,2.7999878.6999969.6000061,0,1.1000061-.1000061,1.3999939-.3000031s.5-.5.5-1c0-.3999939-.1000061-.6000061-.3999939-.8999939-.2999878-.3000031-.6000061-.3999939-1-.6000061-.3999939-.1000061-.8999939-.3000031-1.6000061-.5-1.1000061-.3000031-1.8999939-.6000061-2.6000061-.8999939-.7000122-.3000031-1.2999878-.8000031-1.7999878-1.3999939-.5-.6000061-.7000122-1.3999939-.7000122-2.3999939s.2999878-1.8000031.7999878-2.5,1.2000122-1.3000031,2.2000122-1.6999969c.8999939-.3999939,2-.6000061,3.2999878-.6000061,1.1000061,0,2.2000122.1999969,3.2999878.5,1.1000061.3000031,2.1000061.6999969,2.8999939,1.3000031l-1.5,3.1999969c-1.0999146-.4000092-1.8999329-.8000183-2.8999329-1.1000214h0ZM529.7999878,146.6999905c1.2999878.6999969,2.2999878,1.6000061,3,2.8999939.7000122,1.1999969,1.0999756,2.6000061,1.0999756,4.1000061s-.4000244,2.8999939-1.0999756,4.1000061c-.7000122,1.1999969-1.7000122,2.1999969-3,2.8999939s-2.7000122,1.1000061-4.2999878,1.1000061-3-.3000031-4.2999878-1.1000061c-1.2999878-.6999969-2.2999878-1.6999969-3-2.8999939s-1.0999756-2.6000061-1.0999756-4.1000061.4000244-2.8999939,1.0999756-4.1000061c.7000122-1.1999969,1.7000122-2.1999969,3-2.8999939s2.7000122-1,4.2999878-1,3,.3000031,4.2999878,1h0ZM523.4000244,149.6999905c-.7000122.3999939-1.2000122,1-1.5999756,1.6000061-.4000244.6999969-.5999756,1.5-.5999756,2.3000031,0,.8999939.2000122,1.6000061.5999756,2.3000031.4000244.6999969.9000244,1.1999969,1.5999756,1.6999969.5999756.3999939,1.4000244.6000061,2.0999756.6000061s1.5-.1999969,2.0999756-.6000061c.5999756-.3999939,1.2000122-1,1.5-1.6999969.4000244-.6999969.5999756-1.5.5999756-2.3000031s-.2000122-1.6000061-.5999756-2.3000031c-.2999878-.6999969-.9000244-1.1999969-1.5-1.6000061-.5999756-.3999939-1.2999878-.6000061-2.0999756-.6000061s-1.4000244.2000122-2.0999756.6000061h0ZM541.5,145.8999874h4.0999756v12.1000061h6.5999756v3.5h-10.5999756l-.0999756-15.6000061h0ZM570.9000244,161.3999874l-1.0999756-2.6999969h-6.7000122l-1.0999756,2.6999969h-4.2000122l6.7000122-15.5h4.2000122l6.5,15.5h-4.3000488ZM564.4000244,155.5999996h4.2999878l-2.0999756-5.5-2.2000122,5.5h0ZM591.5,161.3999874l-2.2999878-4.3000031h-3v4.3000031h-4.0999756v-15.5h7c2.0999756,0,3.5999756.5,4.7999878,1.3999939,1.0999756,1,1.7000122,2.3000031,1.7000122,4,0,1.1999969-.2000122,2.1999969-.7000122,3s-1.2000122,1.5-2.0999756,2l3.2000122,5.1000061h-4.500061ZM586.2000122,153.8999874h2.9000244c.7999878,0,1.5-.1999969,1.9000244-.6000061s.7000122-1,.7000122-1.8000031-.2000122-1.3000031-.7000122-1.6999969-1.0999756-.6000061-1.9000244-.6000061h-2.9000244v4.7000122h0ZM295.3999939,104.399995c-3.1000061,1.5-6.1000061,2.1999969-9,2.1999969-3.5,0-6.7999878-.9000015-9.7000122-2.6999969-2.8999939-1.8000031-5.2000122-4.1999969-6.8999939-7.3000031-1.7000122-3.0999985-2.5-6.5999985-2.5-10.4000015s.7999878-7.3000031,2.5-10.4000015,4-5.5,6.8999939-7.3000031,6.1000061-2.6999969,9.7000122-2.6999969c3.1000061,0,6.2000122.8000031,9.2999878,2.5,3.1000061,1.6999969,5.7999878,4,8.1000061,6.9000015l10.6000061-12.7999992c-3.5-3.7000008-7.7999878-6.7000008-12.8999939-8.8999977-5.1000061-2.2000008-10.2000122-3.2000008-15.3999939-3.2000008-7.1000061,0-13.5,1.5999985-19.2000122,4.7000008-5.7000122,3.0999985-10.2000122,7.4000015-13.5,12.9000015-3.3000031,5.5-4.8999939,11.5999985-4.8999939,18.4000015,0,6.9000015,1.6000061,13.0999985,4.8000031,18.5999985s7.5999908,9.9000015,13.1999969,13.0999985,11.8999939,4.8000031,18.7999878,4.8000031c5.1000061,0,10.2999878-1.1999969,15.6000061-3.5999985,5.2000122-2.4000015,9.7999878-5.5999985,13.6000061-9.5999985l-10.7000122-11.5c-2.5,2.8999939-5.2999878,4.8999939-8.3999939,6.2999954h0ZM374.7000122,96.1999905c0-9.0999985-2.3999939-16.1999969-7.1000061-21.4000015-4.7000122-5.1999969-11.5-7.8000031-20.2999878-7.8000031-5.6000061,0-10.5,1.0999985-14.7999878,3.4000015s-7.6000061,5.5999985-9.8999939,9.8000031c-2.2999878,4.1999969-3.5,9.0999985-3.5,14.6999969,0,5.5,1.1000061,10.3000031,3.5,14.4000015,2.2999878,4.0999985,5.6000061,7.3000031,10,9.5999985,4.2999878,2.3000031,9.3999939,3.4000015,15.2000122,3.4000015,5,0,9.5-.8000031,13.5-2.5,4-1.5999985,7.3999939-4,10.2000122-7.1999969l-9.2999878-9.3000031c-1.7999878,1.8000031-3.7999878,3.1999969-5.8999939,4.0999985s-4.3999939,1.4000015-6.7999878,1.4000015c-3.1000061,0-5.7000122-.8000031-7.7999878-2.4000015-2.1000061-1.5999985-3.6000061-4-4.5-7.0999985h37.6000061c-.1000977-.5999985-.1000977-1.6999969-.1000977-3.0999985ZM336.6000061,89.899995c.6000061-3.1999969,1.8999939-5.6999969,3.7999878-7.5999985s4.2999878-2.8000031,7.1000061-2.8000031c3,0,5.3999939.9000015,7.2999878,2.8000031,1.7999878,1.9000015,2.7999878,4.4000015,2.7999878,7.5999985h-20.9999695ZM421.8999939,66.899995c-3.8999939,0-7.3999939.8000031-10.5,2.4000015-3,1.5999985-5.5,4-7.5,7.0999985v-8.8000031h-17.7999878v54.0999985h17.8999939v-28.5999985c.2999878-3.0999985,1.3999939-5.5,3.2999878-7.4000015s4.2999878-2.8000031,7.2999878-2.9000015c2.7999878,0,5,.9000015,6.7000122,2.5999985,1.7000122,1.8000031,2.5,4.1999969,2.5,7.3000031v29h17.7000122v-34.0999985c0-6.3000031-1.7999878-11.4000015-5.3999939-15.0999985-3.5-3.6999969-8.2000122-5.5999985-14.2000122-5.5999985h0ZM480.8999939,108.099992c-3.1000061,0-4.7000122-1.9000015-4.7000122-5.6999969v-20.4000015h14v-11.8000031h-14v-15h-17.7000122v15h-7.4999695v11.8000031h7.5v23.1999969c0,5.4000015,1.6000061,9.5999985,5,12.6999969,3.2999878,3.0999985,7.6000061,4.5999985,13,4.5999985,2.7000122,0,5.2999878-.3000031,7.8999939-.9000015s4.8999939-1.5,6.8999939-2.6999969l-3.3999939-12.5999985c-2.6999817,1.2000046-5,1.8000031-7,1.8000031h0ZM525.7000122,66.9999935c-5.5999756,0-10.5,1.0999985-14.7999878,3.4000015s-7.6000061,5.5999985-9.8999939,9.8000031c-2.2999878,4.1999969-3.5,9.0999985-3.5,14.6999969,0,5.5,1.1000061,10.3000031,3.5,14.4000015,2.2999878,4.0999985,5.6000061,7.3000031,10,9.5999985,4.3000183,2.3000031,9.3999939,3.4000015,15.1999817,3.4000015,5,0,9.5-.8000031,13.5-2.5,4-1.5999985,7.4000244-4,10.2000122-7.1999969l-9.2999878-9.3000031c-1.7999878,1.8000031-3.7999878,3.1999969-6,4.0999985-2.0999756.9000015-4.4000244,1.4000015-6.7999878,1.4000015-3.0999756,0-5.7000122-.8000031-7.7999878-2.4000015s-3.5999756-4-4.5-7.0999985h37.499939c.0999756-.6999969.0999756-1.8000031.0999756-3.1999969,0-9.0999985-2.4000244-16.1999969-7.0999756-21.4000015-4.7999878-5.1000061-11.5-7.7000046-20.2999878-7.7000046ZM514.9000244,89.899995c.5999756-3.1999969,1.9000244-5.6999969,3.7999878-7.5999985,1.9000244-1.9000015,4.2999878-2.8000031,7.0999756-2.8000031,3,0,5.4000244.9000015,7.2999878,2.8000031,1.7999878,1.9000015,2.7999878,4.4000015,2.7999878,7.5999985h-20.999939ZM589.5999756,69.399995c-3,1.6999969-5.4000244,4.0999985-7.2999878,7.1999969v-9h-17.7999878v54.0999985h17.7999878v-27.5999985c.4000244-3.4000015,1.9000244-6.0999985,4.5-8.0999985s6-3,10.2000122-3c1.2000122,0,2.0999756,0,2.7000122.0999985v-16.1999969c-3.7000122,0-7.1000366.9000015-10.1000366,2.5h0Z"/>
  <path class="st0" d="M118.4000015,66.9999935c-5.5999985,0-10.5,1.0999985-14.8000031,3.4000015s-7.5999985,5.5999985-9.9000015,9.8000031c-2.3000031,4.1999969-3.5,9.0999985-3.5,14.6999969,0,5.5,1.0999985,10.3000031,3.5,14.4000015,2.3000031,4.0999985,5.5999985,7.3000031,10,9.5999985,4.3000031,2.3000031,9.4000015,3.4000015,15.1999969,3.4000015,5,0,9.5-.8000031,13.5-2.5,4-1.5999985,7.3999939-4,10.1999969-7.1999969l-9.3000031-9.3000031c-1.8000031,1.8000031-3.8000031,3.1999969-6,4.0999985s-4.4000015,1.4000015-6.8000031,1.4000015c-3.0999985,0-5.6999969-.8000031-7.8000031-2.4000015-2.0999985-1.5999985-3.5999985-4-4.5-7.0999985h37.6000061c.1000061-.6999969.1000061-1.8000031.1000061-3.1999969,0-9.0999985-2.3999939-16.1999969-7.1000061-21.4000015-4.8999939-5.1000061-11.5999908-7.7000046-20.3999863-7.7000046h0ZM107.6999969,89.899995c.5999985-3.1999969,1.9000015-5.6999969,3.8000031-7.5999985s4.3000031-2.8000031,7.0999985-2.8000031c3,0,5.4000015.9000015,7.3000031,2.8000031,1.8000031,1.9000015,2.7999954,4.4000015,2.7999954,7.5999985h-21ZM157.3000031,67.599992h17.6999969v54.0999985h-17.6999969v-54.0999985ZM166.1000061,35.9999935c-2.6999969,0-5,.9000015-6.8000031,2.7000008s-2.6999969,4.0999985-2.6999969,6.9000015c0,2.7000008.8999939,5,2.6999969,6.7999992s4,2.7000008,6.8000031,2.7000008c2.6999969,0,5-.9000015,6.8000031-2.7000008s2.6000061-4.0999985,2.6000061-6.7999992c0-2.7999992-.8999939-5.0999985-2.6000061-6.9000015-1.8000031-1.7999992-4.0000153-2.7000008-6.8000031-2.7000008ZM235.8999939,78.4999935v-10.8000031l-47.3999939-.0999985v13.6999969h25.1000061l-26,29.5999985v10.8000031h49.3000031v-13.5999985h-27l25.9999847-29.5999985ZM60.2999992,44.9999935v31.0999985h-28.2999992v-25.0999985l-18.2999992,3.5v67.1999969h18.2999992v-31h28.2999992v31.0999985h18.2999992V41.399995l-18.2999992,3.5999985Z"/>
  <path class="st1" d="M244.8000031,56.9999935l-1,2.7000008-42.4000092-11-13.6999969-3.5V15.4999935h-42.0999908v18.7999992l-13.6999969-3.5-40.7000122-10.8999996L1.6,51.4999935l-1.6-2.7000008L91.1999969.1999935l40.6999969,15.3V5.9999935h69.5v34.0999985l43.4000092,16.9000015Z"/>
</svg>